<svg xmlns="http://www.w3.org/2000/svg" width="769.903" height="199" viewBox="0 0 769.903 199"><path fill="#E11B22" d="M206.978 111.504c-4.28 3.296-7.333 4.848-9.372 4.848h-5.3c-5.3-.39-9.78-2.91-13.45-7.56-3.464-4.657-3.503-13.884-3.503-19.125 0-1.16-.207-4.946 0-6.11 0 0-5.95 8.215-13.08 15.975-6.318 6.786-10.803 10.08-13.655 10.08-5.097 0-6.853-1.21-6.853-8.388 0-4.65 1.022-9.31 3.06-14.155 2.036-4.85 3.053-7.37 3.053-7.948l-1.165-3.94c-2.036-.387-8.15 6.4-18.544 20.167-10.395 14.154-17.528 21.33-20.993 21.33-2.037 0-2.704.058-4.13-2.073-1.02-1.748-1.632-3.295-1.632-5.045 3.058-7.947 5.502-14.93 7.747-21.133 5.092-15.126 7.946-25.014 8.353-29.478.61-4.072 3.872-9.113 8.152-9.113 4.688 0 6.93 1.94 6.93 5.816 0 4.462-3.506 14.442-6.563 23.17.204.577.408 1.353 1.02 1.938 1.02-.97 7.986-9.786 16.955-19.87 5.095-6.014 9.78-8.92 14.06-8.92 3.464 0 5.705 4.074 5.705 6.978 0-1.744-1.627 7.37-4.89 27.15 1.834-1.94 7.338-8.726 16.71-20.364 5.91-7.363 10.393-11.826 13.452-13.57l1.63-1.553c4.28 2.712 6.52 4.463 6.52 5.04 0 3.688-1.833 9.505-5.297 17.26-3.465 7.758-5.3 14.93-5.3 21.716 0 8.34 3.87 12.608 11.82 12.608 1.63 0 7.54-2.91 17.526-8.73 1.427 1.36 2.242 1.938 2.242 1.746-.202.19-.202.582-.406.773-2.854 3.692-6.525 7.18-10.804 10.477M319.872 103.357c-2.243 3.298-5.908 6.98-11.006 10.858-6.726 4.85-12.633 7.37-18.138 7.37-6.113 0-11.41-2.52-15.69-7.56-4.28-5.235-6.316-10.858-6.316-17.26 0-1.745.2-3.488.61-5.04-5.3 5.233-10.6 10.665-15.898 16.09-6.518 6.015-11.613 9.113-15.488 9.113-9.17 0-13.857-5.617-13.857-16.674 0-4.46 3.67-14.54 11.004-30.25 7.54-16.29 12.636-24.432 15.488-24.432 1.427 0 3.058 1.553 4.482 4.657 1.632 2.904 2.447 5.23 2.447 6.783 0-.192-3.26 5.625-9.984 17.645-6.722 12.41-10.6 21.72-11.21 28.116-.205.392-.205.776.408 1.163 6.115-2.133 15.49-10.66 27.92-25.595 2.244-2.518 5.91-6.783 10.595-12.798 1.63-2.715 3.26-5.427 5.095-7.948 2.65-3.297 5.298-5.24 7.946-5.816.615.577 2.043 2.324 4.282 5.04 1.427 1.356 2.04 2.907 2.04 4.267 0-.97-2.242 3.488-6.522 13.186-4.28 9.498-6.522 17.256-6.93 22.876-.2 2.136.614 4.654 2.04 7.757 1.83 4.074 4.48 6.01 7.538 6.01 3.465 0 8.357-1.55 14.472-4.653 6.93-3.49 11.613-5.428 14.06-6.01l.612 3.103zM362.964 20.164c-4.076 9.166 1.132 2.87-8.13 27.552-11.116 29.084-16.86 47.947-17.23 56.41-.186 2.467.555 5.29 2.04 8.64 1.662 3.348 2.408 4.936 2.222 5.11 0 1.94-1.113 2.996-3.15 2.82h-3.337c-2.965 0-5.372-2.293-7.412-7.054-1.483-3.348-2.22-5.99-2.035-7.575.183-5.646 1.294-12.34 3.52-19.925 4.628-15.16 4.653-20.233 12.25-40.328 5-12.87 3.102-14.723 5.138-27.06.187-1.234 1.482-3 3.71-5.115 2.406-2.116 3.888-3.17 4.815-3.17 1.666.175 3.523 1.41 5.56 3.7l2.04 5.994zM431.72 54.94c-.56.71.736 2.117.736 2.65 0 .878-.736 1.756-2.22 2.992-12.042 2.292-20.936 4.583-26.864 6.876-4.448 1.765-8.894 4.056-13.525 6.873.182 1.59-.558 4.235-1.854 7.937-1.296 3.526-2.038 6.17-2.038 7.755 0 1.412.556 5.467.742 6.7 0 1.586-1.11 6.166-3.15 13.397-2.41 8.46-4.818 12.695-6.853 12.695-2.225 0-4.45-2.12-6.673-6.172-1.662-3.347-2.59-5.992-2.59-7.76 0-.525 1.29-4.76 3.887-12.514 2.78-7.932 4.078-12.168 4.078-12.866 0-1.237-2.592-4.584-2.78-5.472-1.11-3.523-1.665-6.518-1.665-9.163 0-.883.927-2.293 2.962-4.586 2.038-2.288 3.522-3.35 4.08-3.35 1.48 0 2.22-.352 3.515-.352 1.298 0 .75-.78 4.457-10.476 1.856-5.116.382-1.47 2.24-6.408 3.52-7.584 2.176-7.848 7.547-22.476 2.407-3.528 4.815-3.35 5.56-4.584h3.335c0 1.234 2.967 7.053 2.967 10.576 0 3.174 2.266.617-4.4 13.66-7.412 14.81-5.584 11.955-6.883 16.537l1.112 1.235c4.448-1.056 9.265-1.763 14.27-2.12l20.008-1.584zM466.08 105.38c-9.533 8.325-15.757 12.587-18.478 12.587-.584 0-1.946 0-4.476.183-2.333.187-3.888.367-4.476.367-4.08 0-7.777-2.036-11.09-6.29-3.303-4.254-5.053-8.327-5.053-12.216 0-4.624 2.916-13.322 8.753-26.097 6.03-13.32 10.31-19.985 13.226-19.985 4.086 0 7.196 2.406 9.34 7.036-.584 1.29-4.477 8.137-11.476 20.168-4.474 7.778-6.81 14.254-6.81 19.436 0 1.11 0 2.22.192 3.146.976 1.665 3.307 2.59 6.81 2.59 4.865 0 11.476-3.143 19.84-9.44 9.92-7.22 15.563-11.29 17.314-11.842 0 .185.97 1.292.97 2.588 0 3.517-4.86 9.442-14.587 17.77m8.168-80.88c-6.224 4.44-10.116 6.663-11.67 6.663-4.085 0-8.364-5.55-8.364-9.254 0-.737.193-1.297.388-1.667 2.53-1.298 5.06-2.774 7.586-4.07 10.31-5.184 20.813-5.923 21.01-5.923.97 0 2.14 1.298 3.5 3.7-2.14 2.59-6.224 6.107-12.45 10.55M535.24 99.186c-10.56 11.818-19.823 18.16-27.42 18.69-6.114.353-9.448-2.11-9.82-7.58-.184-1.76.558-3.88 2.042-6.52 1.664-2.646 3.518-3.88 5.74-4.06 1.482-.176 2.41.704 2.967 2.295 0 1.057 0 2.114.183 2.997.372.352.928.525 1.483.525 5.37-.525 11.67-5.815 18.898-15.862 6.854-9.872 10.002-17.456 9.633-22.737-.557-6.176-4.63-9.7-10.005-9.523-7.78.525-15.933 7.754-24.455 22.034-6.3 10.4-12.417 23.8-18.344 40.193-4.447 12.518-7.04 20.804-7.6 25.032-.366 2.645-1.48 6.525-3.146 11.633-2.223 6.882-3.334 10.578-3.52 11.107-.927.53-2.407 1.234-4.446 1.94-1.666.176-4.077-1.76-7.223-5.64-.187-3.704 1.664-10.402 5.37-20.277 3.518-9.34 6.855-18.508 10.375-27.85l11.674-35.43c5.37-15.693 9.264-23.454 11.858-23.63 2.776-.17 3.705-.35 3.15-.35 2.775 0 4.26 2.47 4.443 7.4 5.188-9.692 16.676-16.57 27.98-16.743 4.444-.176 8.153 2.293 11.3 7.05 2.593 4.053 4.076 8.814 4.448 14.104.372 8.815-4.818 19.22-15.564 31.202M602.86 15.467c-3.872 8.707-3.932 12.23-12.73 35.673-10.563 27.63-16.016 45.547-16.368 53.59-.18 2.34.528 5.02 1.937 8.203 1.583 3.18 2.284 4.69 2.11 4.856 0 1.843-1.06 2.844-2.992 2.675h-3.168c-2.816 0-5.104-2.175-7.04-6.696-1.408-3.184-2.112-5.69-1.937-7.203.175-5.36 1.23-11.72 3.346-18.918 4.398-14.407 10.383-31.15 17.597-50.243 4.756-12.225 1.996-11.56 3.932-23.28.176-1.174 1.408-2.85 3.52-4.855 2.29-2.013 3.696-3.016 4.576-3.016 1.586.167 3.345 1.338 5.28 3.515l1.934 5.697z"/><path fill="#E11B22" d="M657.464 71.63c-4.05 4.354-4.505 5.467-8.553 9.655-2.64 5.69-6.864 18.918-13.024 39.855-7.565 25.622-9.106 30.37-20.194 44.607-8.625 11.218-18.48 18.59-29.217 22.103-5.63 1.843-11.088 2.847-16.19 2.847-12.497 0-22.88-4.353-31.15-13.06-7.92-8.207-11.97-17.754-11.97-28.806 0-16.745 4.927-29.136 14.96-37.176 2.286-2.177 3.52-3.182 3.87-3.352-.352.17.705.17 2.993.17-1.232 5.193-4.05 10.044-8.798 14.904.175 2.18-.354 5.525-1.41 10.22-1.057 5.02-1.585 8.706-1.585 10.883 0 10.212 2.115 18.252 6.16 24.447 5.104 7.868 13.376 11.718 24.465 11.718 20.592 0 35.25-8.824 49.505-35.786 8.097-15.24 9.937-23.72 15.394-46.33.348-.166 0-.333-1.054-.333-.18 0-4.93 4.017-14.085 11.888-9.146 7.87-14.78 11.89-16.717 11.89-1.587 0-3.693-1.17-5.98-3.686-2.29-2.345-3.346-4.187-3.346-5.526 0-6.03 2.993-14.567 8.975-25.623 6.336-11.553 9.68-18.586 9.855-20.76 1.057-.507 2.64-.84 4.575-.84 1.76 0 3.344 1.17 4.754 3.513 1.23 1.846 1.76 3.52 1.76 4.86 0-.167-2.64 3.514-7.92 11.385-5.283 7.708-8.097 14.238-8.272 19.43 3.17-1.51 6.688-3.854 10.56-7.036 2.994-2.676 5.983-5.36 8.978-7.87 3.166-2.68 8.094-7.034 14.608-12.893 2.99-5.864 3.503-7.1 6.492-13.133 6.69-11.554 13.024-17.247 19.01-17.247 1.586 0 2.992 1.507 4.402 4.687 1.054 2.514 1.584 4.354 1.584 5.194-.002 2.512-5.51 6.66-13.434 15.2"/><text transform="matrix(1 0 0 1.111 97.967 173.458)"><tspan x="0" y="0" fill="#636466" font-family="'DINOT-Light'" font-size="38.702" letter-spacing="1">w</tspan><tspan x="29.568" y="0" fill="#636466" font-family="'DINOT-Light'" font-size="38.702" letter-spacing="1">e</tspan><tspan x="50.002" y="-.001" fill="#636466" font-family="'DINOT-Light'" font-size="38.702" letter-spacing="1">llness &amp; </tspan><tspan x="189.366" y="-.001" fill="#636466" font-family="'DINOT-Light'" font-size="38.702" letter-spacing="1">re</tspan><tspan x="223.501" y="0" fill="#636466" font-family="'DINOT-Light'" font-size="38.702" letter-spacing="1">war</tspan><tspan x="286.546" y="-.001" fill="#636466" font-family="'DINOT-Light'" font-size="38.702" letter-spacing="1">d</tspan><tspan x="309.419" y="0" fill="#636466" font-family="'DINOT-Light'" font-size="38.702">s</tspan></text></svg>