<?xml version="1.0" encoding="utf-8"?>
<!-- Generator: Adobe Illustrator 16.0.0, SVG Export Plug-In . SVG Version: 6.00 Build 0)  -->
<!DOCTYPE svg PUBLIC "-//W3C//DTD SVG 1.1//EN" "http://www.w3.org/Graphics/SVG/1.1/DTD/svg11.dtd">
<svg version="1.1" id="Isolation_Mode" xmlns="http://www.w3.org/2000/svg" xmlns:xlink="http://www.w3.org/1999/xlink" x="0px"
	 y="0px" width="769.903px" height="199px" viewBox="0 0 769.903 199" enable-background="new 0 0 769.903 199"
	 xml:space="preserve">
<g>
	<path fill="#E11B22" d="M206.978,111.504c-4.28,3.296-7.333,4.848-9.372,4.848h-5.3c-5.299-0.391-9.781-2.909-13.449-7.561
		c-3.465-4.656-3.504-13.883-3.504-19.124c0-1.159-0.207-4.946,0-6.109c0,0-5.949,8.214-13.079,15.974
		c-6.319,6.786-10.804,10.081-13.656,10.081c-5.097,0-6.853-1.212-6.853-8.389c0-4.65,1.022-9.309,3.061-14.155
		c2.035-4.848,3.052-7.369,3.052-7.947l-1.165-3.94c-2.036-0.387-8.15,6.401-18.544,20.167
		c-10.394,14.155-17.527,21.331-20.992,21.331c-2.037,0-2.704,0.058-4.131-2.073c-1.019-1.748-1.631-3.295-1.631-5.045
		c3.058-7.947,5.502-14.931,7.747-21.133c5.092-15.125,7.946-25.013,8.353-29.477c0.611-4.072,3.872-9.113,8.152-9.113
		c4.688,0,6.929,1.942,6.929,5.817c0,4.462-3.505,14.442-6.562,23.171c0.204,0.576,0.408,1.352,1.019,1.937
		c1.021-0.971,7.987-9.786,16.956-19.869c5.096-6.015,9.781-8.921,14.06-8.921c3.465,0,5.706,4.074,5.706,6.978
		c0-1.744-1.627,7.369-4.89,27.15c1.834-1.94,7.338-8.726,16.71-20.364c5.91-7.363,10.393-11.826,13.452-13.571l1.629-1.552
		c4.281,2.712,6.522,4.463,6.522,5.041c0,3.687-1.834,9.504-5.298,17.259c-3.465,7.758-5.299,14.93-5.299,21.716
		c0,8.338,3.869,12.607,11.82,12.607c1.628,0,7.539-2.911,17.525-8.729c1.427,1.36,2.242,1.937,2.242,1.745
		c-0.202,0.191-0.202,0.582-0.406,0.773C214.928,104.719,211.257,108.206,206.978,111.504"/>
	<path fill="#E11B22" d="M319.872,103.357c-2.243,3.298-5.908,6.979-11.006,10.858c-6.726,4.851-12.633,7.37-18.138,7.37
		c-6.113,0-11.411-2.52-15.69-7.56c-4.281-5.235-6.316-10.858-6.316-17.26c0-1.745,0.201-3.488,0.61-5.041
		c-5.3,5.234-10.6,10.666-15.898,16.091c-6.518,6.015-11.613,9.113-15.488,9.113c-9.17,0-13.857-5.617-13.857-16.674
		c0-4.459,3.671-14.541,11.005-30.249c7.541-16.29,12.636-24.433,15.488-24.433c1.427,0,3.058,1.553,4.482,4.657
		c1.632,2.905,2.447,5.232,2.447,6.784c0-0.192-3.261,5.625-9.985,17.645c-6.722,12.41-10.599,21.721-11.209,28.116
		c-0.206,0.392-0.206,0.776,0.407,1.163c6.115-2.133,15.491-10.661,27.92-25.595c2.244-2.518,5.91-6.783,10.595-12.798
		c1.631-2.715,3.262-5.427,5.096-7.948c2.65-3.297,5.298-5.239,7.946-5.816c0.614,0.577,2.042,2.324,4.281,5.041
		c1.427,1.355,2.039,2.906,2.039,4.266c0-0.97-2.241,3.488-6.521,13.186c-4.281,9.498-6.522,17.256-6.929,22.876
		c-0.201,2.137,0.613,4.655,2.038,7.758c1.832,4.074,4.482,6.01,7.539,6.01c3.465,0,8.357-1.551,14.472-4.653
		c6.93-3.489,11.613-5.428,14.06-6.01L319.872,103.357z"/>
	<path fill="#E11B22" d="M362.964,20.164c-4.076,9.166,1.132,2.871-8.131,27.552c-11.115,29.084-16.859,47.947-17.23,56.409
		c-0.185,2.468,0.556,5.291,2.041,8.64c1.662,3.349,2.408,4.937,2.222,5.112c0,1.938-1.113,2.995-3.151,2.818h-3.336
		c-2.964,0-5.371-2.292-7.411-7.053c-1.483-3.348-2.221-5.991-2.035-7.575c0.183-5.646,1.294-12.341,3.519-19.925
		c4.629-15.161,4.654-20.233,12.25-40.328c5-12.871,3.103-14.723,5.139-27.061c0.186-1.233,1.481-3,3.709-5.114
		c2.406-2.115,3.888-3.169,4.815-3.169c1.666,0.175,3.523,1.409,5.559,3.701L362.964,20.164z"/>
	<path fill="#E11B22" d="M431.72,54.941c-0.559,0.708,0.736,2.116,0.736,2.648c0,0.879-0.736,1.757-2.221,2.993
		c-12.041,2.292-20.935,4.583-26.863,6.876c-4.448,1.765-8.894,4.056-13.525,6.873c0.182,1.589-0.558,4.234-1.854,7.936
		c-1.296,3.526-2.038,6.171-2.038,7.755c0,1.412,0.556,5.467,0.742,6.701c0,1.585-1.111,6.165-3.151,13.396
		c-2.409,8.462-4.817,12.696-6.852,12.696c-2.225,0-4.45-2.12-6.673-6.172c-1.663-3.347-2.592-5.992-2.592-7.759
		c0-0.526,1.292-4.76,3.888-12.515c2.781-7.931,4.078-12.167,4.078-12.865c0-1.237-2.592-4.584-2.781-5.472
		c-1.11-3.523-1.664-6.518-1.664-9.163c0-0.882,0.927-2.292,2.962-4.585c2.038-2.288,3.522-3.349,4.079-3.349
		c1.482,0,2.222-0.353,3.516-0.353c1.298,0,0.751-0.779,4.457-10.476c1.856-5.116,0.382-1.47,2.239-6.408
		c3.52-7.584,2.177-7.848,7.548-22.476c2.406-3.528,4.814-3.35,5.559-4.584h3.335c0,1.234,2.967,7.053,2.967,10.576
		c0,3.174,2.266,0.617-4.4,13.661c-7.412,14.81-5.584,11.954-6.883,16.536l1.113,1.234c4.448-1.056,9.265-1.763,14.27-2.12
		L431.72,54.941z"/>
	<path fill="#E11B22" d="M466.079,105.379c-9.532,8.326-15.756,12.588-18.477,12.588c-0.584,0-1.946,0-4.476,0.183
		c-2.333,0.187-3.888,0.367-4.476,0.367c-4.08,0-7.777-2.036-11.089-6.289c-3.304-4.255-5.054-8.328-5.054-12.217
		c0-4.625,2.916-13.323,8.753-26.098c6.03-13.319,10.31-19.985,13.226-19.985c4.086,0,7.196,2.406,9.339,7.036
		c-0.583,1.29-4.476,8.137-11.475,20.168c-4.474,7.778-6.811,14.254-6.811,19.436c0,1.109,0,2.219,0.193,3.146
		c0.976,1.665,3.307,2.591,6.81,2.591c4.865,0,11.476-3.144,19.841-9.442c9.92-7.218,15.562-11.289,17.313-11.841
		c0,0.185,0.97,1.292,0.97,2.588C480.667,91.127,475.805,97.052,466.079,105.379 M474.248,24.5
		c-6.224,4.44-10.116,6.663-11.669,6.663c-4.086,0-8.365-5.551-8.365-9.254c0-0.736,0.193-1.296,0.388-1.666
		c2.531-1.298,5.061-2.774,7.586-4.071c10.311-5.183,20.813-5.922,21.011-5.922c0.969,0,2.139,1.298,3.5,3.701
		C484.558,16.541,480.474,20.057,474.248,24.5"/>
	<path fill="#E11B22" d="M535.241,99.186c-10.56,11.818-19.824,18.16-27.421,18.691c-6.114,0.352-9.448-2.112-9.819-7.582
		c-0.185-1.76,0.557-3.88,2.041-6.52c1.664-2.645,3.518-3.88,5.74-4.058c1.482-0.177,2.411,0.703,2.967,2.294
		c0,1.056,0,2.113,0.184,2.996c0.372,0.352,0.928,0.525,1.483,0.525c5.371-0.525,11.671-5.815,18.898-15.862
		c6.854-9.872,10.002-17.456,9.633-22.737c-0.557-6.176-4.629-9.701-10.005-9.523c-7.779,0.525-15.933,7.754-24.455,22.034
		c-6.299,10.399-12.417,23.801-18.344,40.193c-4.447,12.518-7.039,20.804-7.599,25.032c-0.367,2.646-1.481,6.526-3.147,11.634
		c-2.223,6.882-3.334,10.578-3.521,11.107c-0.926,0.531-2.406,1.234-4.445,1.94c-1.667,0.176-4.078-1.759-7.224-5.641
		c-0.187-3.703,1.664-10.401,5.371-20.276c3.517-9.341,6.854-18.508,10.374-27.849l11.674-35.432
		c5.371-15.692,9.264-23.453,11.858-23.63c2.776-0.17,3.705-0.348,3.15-0.348c2.775,0,4.261,2.468,4.443,7.398
		c5.188-9.691,16.676-16.569,27.979-16.742c4.445-0.176,8.154,2.293,11.3,7.051c2.594,4.052,4.077,8.813,4.449,14.103
		C551.177,76.799,545.987,87.205,535.241,99.186"/>
	<path fill="#E11B22" d="M602.86,15.467c-3.872,8.707-3.932,12.229-12.731,35.673c-10.562,27.629-16.015,45.547-16.367,53.589
		c-0.179,2.342,0.528,5.021,1.937,8.204c1.584,3.181,2.285,4.691,2.112,4.856c0,1.844-1.06,2.845-2.993,2.676h-3.168
		c-2.816,0-5.104-2.175-7.039-6.696c-1.409-3.183-2.113-5.689-1.938-7.202c0.175-5.359,1.23-11.721,3.346-18.918
		c4.399-14.406,10.384-31.148,17.598-50.242c4.756-12.225,1.996-11.561,3.932-23.281c0.177-1.173,1.409-2.848,3.521-4.854
		c2.289-2.013,3.696-3.016,4.576-3.016c1.586,0.167,3.345,1.338,5.28,3.515L602.86,15.467z"/>
	<path fill="#E11B22" d="M657.464,71.63c-4.049,4.354-4.505,5.467-8.553,9.655c-2.64,5.69-6.865,18.918-13.025,39.855
		c-7.565,25.622-9.106,30.37-20.194,44.607c-8.625,11.218-18.479,18.589-29.217,22.103c-5.63,1.843-11.088,2.847-16.19,2.847
		c-12.497,0-22.879-4.353-31.15-13.06c-7.921-8.207-11.97-17.754-11.97-28.806c0-16.746,4.927-29.137,14.961-37.177
		c2.285-2.177,3.518-3.182,3.869-3.352c-0.352,0.17,0.705,0.17,2.993,0.17c-1.232,5.193-4.049,10.044-8.798,14.904
		c0.175,2.18-0.354,5.525-1.409,10.219c-1.058,5.021-1.586,8.707-1.586,10.884c0,10.213,2.115,18.253,6.16,24.448
		c5.104,7.868,13.376,11.718,24.465,11.718c20.592,0,35.25-8.824,49.505-35.786c8.097-15.238,9.937-23.72,15.394-46.329
		c0.349-0.166,0-0.333-1.053-0.333c-0.18,0-4.929,4.017-14.085,11.888c-9.147,7.869-14.781,11.889-16.718,11.889
		c-1.587,0-3.693-1.17-5.981-3.685c-2.289-2.344-3.345-4.186-3.345-5.525c0-6.031,2.993-14.567,8.975-25.623
		c6.336-11.554,9.681-18.587,9.855-20.762c1.057-0.506,2.641-0.84,4.575-0.84c1.759,0,3.344,1.171,4.754,3.514
		c1.229,1.846,1.761,3.521,1.761,4.859c0-0.166-2.64,3.515-7.922,11.386c-5.282,7.708-8.096,14.238-8.271,19.43
		c3.17-1.511,6.688-3.854,10.561-7.036c2.993-2.676,5.982-5.36,8.977-7.869c3.166-2.682,8.094-7.035,14.608-12.894
		c2.99-5.863,3.503-7.1,6.492-13.132c6.69-11.554,13.024-17.247,19.01-17.247c1.586,0,2.992,1.507,4.402,4.687
		c1.054,2.514,1.584,4.354,1.584,5.194C670.896,58.942,665.387,63.091,657.464,71.63"/>
	<text transform="matrix(1 -1.000000e-004 0 1.1111 97.9673 173.458)"><tspan x="0" y="0" fill="#636466" font-family="'DINOT-Light'" font-size="38.7021" letter-spacing="1">w</tspan><tspan x="29.568" y="0" fill="#636466" font-family="'DINOT-Light'" font-size="38.7021" letter-spacing="1">e</tspan><tspan x="50.002" y="-0.001" fill="#636466" font-family="'DINOT-Light'" font-size="38.7021" letter-spacing="1">llness &amp; </tspan><tspan x="189.366" y="-0.001" fill="#636466" font-family="'DINOT-Light'" font-size="38.7021" letter-spacing="1">re</tspan><tspan x="223.501" y="0" fill="#636466" font-family="'DINOT-Light'" font-size="38.7021" letter-spacing="1">war</tspan><tspan x="286.546" y="-0.001" fill="#636466" font-family="'DINOT-Light'" font-size="38.7021" letter-spacing="1">d</tspan><tspan x="309.419" y="0" fill="#636466" font-family="'DINOT-Light'" font-size="38.7021">s</tspan></text>
</g>
</svg>
